<?xml version="1.0" encoding="UTF-8" standalone="no"?>
<!-- Created with Inkscape (http://www.inkscape.org/) -->

<svg
   width="210mm"
   height="297mm"
   viewBox="0 0 210 297"
   version="1.1"
   id="svg1"
   xml:space="preserve"
   inkscape:version="1.3.2 (091e20e, 2023-11-25, custom)"
   sodipodi:docname="hook.svg"
   xmlns:inkscape="http://www.inkscape.org/namespaces/inkscape"
   xmlns:sodipodi="http://sodipodi.sourceforge.net/DTD/sodipodi-0.dtd"
   xmlns="http://www.w3.org/2000/svg"
   xmlns:svg="http://www.w3.org/2000/svg"><sodipodi:namedview
     id="namedview1"
     pagecolor="#ffffff"
     bordercolor="#000000"
     borderopacity="0.25"
     inkscape:showpageshadow="2"
     inkscape:pageopacity="0.0"
     inkscape:pagecheckerboard="0"
     inkscape:deskcolor="#d1d1d1"
     inkscape:document-units="mm"
     inkscape:zoom="0.44724901"
     inkscape:cx="342.09131"
     inkscape:cy="429.29106"
     inkscape:window-width="1500"
     inkscape:window-height="930"
     inkscape:window-x="-6"
     inkscape:window-y="-6"
     inkscape:window-maximized="1"
     inkscape:current-layer="g1" /><defs
     id="defs1" /><g
     inkscape:label="Layer 1"
     inkscape:groupmode="layer"
     id="layer1"><g
       style="fill:none"
       id="g1"
       transform="matrix(0.26458333,0,0,0.26458333,97.321663,18.126564)"><path
         d="m 289.15061,607.14109 -2.0001,352.5 c 0,0 -8.7397,3.5 -14.5,3.5 -5.7602,0 -15,-3.5 -15,-3.5 l -8.5,-352.5 c 0,0 3.5841,-61.533 3.5,-101 -0.1169,-54.947 -7.5,-140.5 -7.5,-140.5 v -248 l 15.5001,-93 c 0,0 -23.07068,22.0037 -31.20773,19.5 -6.49999,-2 -0.41276,-63.146096 28.20763,-66.5 16.41169,-1.923218 20.1868,14.0996004 24.5001,29.0000004 5.5,18.9999996 9,110.9999996 9,110.9999996 l -4.0001,248 c 0,0 -3.3307,83.744 -2.5,143.5 0.4862,34.968 4.5001,98 4.5001,98 z"
         fill="#d9d9d9"
         id="path1"
         sodipodi:nodetypes="ccsccccccsssccsc"
         inkscape:export-filename="hook.svg"
         inkscape:export-xdpi="96"
         inkscape:export-ydpi="96" /><path
         d="m -175.23417,15.653614 c -62.84381,-0.4123 -19.7661,85.933006 -0.69336,89.074216 17.29209,-2.84094 59.19455,-88.690416 0.69336,-89.074216 z m -0.0703,21.79102 c 23.61097,-0.12502 8.28562,40.83818 -0.34571,42.18359 -9.52014,-1.48761 -24.17565,-42.05375 0.34571,-42.18359 z"
         style="fill:#d9d9d9;stroke:#000000;stroke-linecap:round;paint-order:stroke markers fill"
         id="path13-07" /><path
         d="m -175.23417,-24.346376 c -62.84381,-0.4123 -19.7661,85.933 -0.69336,89.07421 17.29209,-2.84094 59.19456,-88.69041 0.69336,-89.07421 z m -0.0703,21.7910102 c 23.61097,-0.12502 8.28562,40.8381798 -0.34571,42.1835898 -9.52014,-1.48761 -24.17565,-42.0537498 0.34571,-42.1835898 z"
         style="fill:#d9d9d9;stroke:#000000;stroke-linecap:round;paint-order:stroke markers fill"
         id="path13-0" /><path
         d="m -270.09209,-66.714299 c -62.84381,-0.412299 -19.7661,85.933003 -0.69336,89.074213 4.44634,-2.05043 59.19455,-88.690413 0.69336,-89.074213 z m -0.0703,21.791013 c 15.90353,1.45599 -4.16486,37.8737802 -0.34571,42.1835902 -9.52014,-1.48761 -24.07387,-44.4192402 0.34571,-42.1835902 z"
         style="fill:#d9d9d9;stroke:#000000;stroke-linecap:round;paint-order:stroke markers fill"
         id="path13"
         sodipodi:nodetypes="scsscs" /><path
         style="fill:#fffab3;fill-opacity:1;stroke:#000000;stroke-width:1;stroke-linecap:round;stroke-dasharray:none;stroke-opacity:1;paint-order:stroke markers fill"
         d="m -202.93295,257.93023 c -0.45618,-1.82465 -16.22793,-25.83849 -17.32816,-32.42042 -1.07603,-6.43716 3.78009,-39.51191 4.47178,-39.68707 9.50688,0.52434 14.96731,12.13193 19.56405,19.56405 1.29144,18.97491 -3.81985,29.44055 -6.70767,52.54344 z"
         id="path14"
         sodipodi:nodetypes="csssc" /><path
         style="fill:#fffab3;fill-opacity:1;stroke:#000000;stroke-width:1;stroke-linecap:round;stroke-dasharray:none;stroke-opacity:1;paint-order:stroke markers fill"
         d="m -193.98939,259.04817 c 8.85613,-19.96138 9.87766,-36.52257 12.85637,-58.13316 l 30.7435,-24.03583 c 2.7825,11.48324 7.22941,24.91925 6.1487,37.45117 0.11792,23.36284 -29.94376,49.53065 -49.74857,44.71782 z"
         id="path15"
         sodipodi:nodetypes="cccsc" /><path
         style="color:#000000;opacity:0.322034;fill:#000000;fill-opacity:1;stroke-linecap:round;-inkscape-stroke:none;paint-order:stroke markers fill"
         d="m 20.392083,10.440414 c -1.76138,-0.09928 -3.562161,-0.09805 -5.394531,0.0098 -12.9565121,0.762385 -24.3112863,6.16285 -32.304688,14.886718 -7.993402,8.723869 -12.730559,20.26737 -15.037109,33.335938 -4.613099,26.13714 0.1092,59.09977 12.601563,94.39648 2.421062,6.84062 5.240478,13.65511 7.796875,20.125 -0.210521,0.26315 -0.508031,0.49904 -0.710938,0.76368 -7.040955,9.1828 -10.201694,18.91726 -12.001953,24.86523 -1.179095,0.22254 -1.984419,0.49305 -3.199219,0.70313 -12.407742,2.14563 -26.30604,3.64718 -33.787109,4.30664 a 10,10 0 0 0 -9.083985,10.83984 10,10 0 0 0 10.839844,9.08398 c 7.647799,-0.67415 21.081317,-2.14793 33.947266,-4.30664 0.509227,3.23474 1.24598,6.46835 2.273437,9.66602 -5.405109,6.68156 -9.64274,14.25331 -12.96289,22.13867 -6.087156,14.457 -2.059318,29.56751 4.83789,41.03516 6.897208,11.46765 16.271051,20.3947 27.4296874,23.82812 19.9861146,6.14957 37.5445226,-5.47802 47.2304686,-14.55859 5.428851,-5.08955 10.09984,-11.29738 15.71875,-21.07227 -0.211471,13.74251 -4.52275,28.27526 -14.53125,41.18946 -17.352854,22.39078 -26.042732,33.88179 -30.464844,39.87304 -0.599303,0.81196 -0.639983,0.90177 -1.09375,1.52539 a 10,10 0 0 0 -6.3730464,4.97266 10,10 0 0 0 4.4726564,13.41602 l 16.707031,8.35351 v -13.08594 c 0.577823,-0.81997 0.953999,-1.37681 2.376953,-3.30468 4.241958,-5.74717 12.880173,-17.17301 30.183594,-39.5 19.400314,-25.03267 22.602265,-55.39351 15.001953,-79.96485 -0.325759,-1.05316 -0.790566,-2.04261 -1.158203,-3.07812 1.762547,-3.65584 3.231988,-6.58482 5.234375,-10.81446 8.203682,-17.32862 5.613939,-38.31606 -4.074219,-55.38086 -2.487793,-4.38201 -5.559588,-8.52162 -9.115234,-12.26171 0.595396,-15.1357 1.030099,-30.87408 2.257813,-46.47657 C 69.199223,110.8276 70.748729,83.340046 65.405755,58.551742 62.734268,46.157592 58.380947,34.222956 50.284661,24.897445 43.200411,16.737623 32.721743,11.135389 20.392083,10.440414 Z m -4.21875,19.974609 c 9.266901,-0.545281 14.296165,2.164504 19.009766,7.59375 4.713601,5.429247 8.420275,14.309743 10.671875,24.75586 4.503199,20.892233 3.352837,47.179747 2.216797,61.617187 -0.927069,11.78172 -1.419987,23.32107 -1.861329,34.58008 -6.771361,-2.78782 -14.263486,-4.32656 -22.396484,-3.97461 -7.357663,0.3184 -13.79094,2.21012 -19.3769533,4.97266 C 2.4962266,155.18333 0.58401097,150.55791 -0.88916723,146.3955 -12.573266,113.3825 -16.320907,82.954266 -12.648932,62.149398 -10.812945,51.746966 -7.2181353,43.931292 -2.5610422,38.848617 2.0960506,33.765942 7.7096759,30.913041 16.173333,30.415023 Z m 8.505859,144.552737 c 8.032949,-0.34762 14.865732,1.90622 20.5625,5.85938 -0.545255,11.65718 -1.21744,22.71366 -2.589843,32.18554 -0.01895,0.1308 -0.0472,0.2428 -0.06641,0.37305 -6.027439,-3.03553 -12.594082,-5.03075 -19.722656,-5.4082 -5.706479,-0.30216 -11.116235,0.20984 -16.1640626,1.39453 0.7718679,-0.6772 1.5426591,-1.28556 2.3203126,-2.19727 4.191976,-4.91458 5.016795,-11.01145 4.705078,-16.21679 -0.250076,-4.17601 -1.253092,-8.21336 -2.46875,-12.26172 3.489271,-2.10151 7.754591,-3.48318 13.423828,-3.72852 z m 38.306641,35.6582 c 1.049743,6.63127 0.654341,13.10915 -1.197266,18.41211 -0.461028,-0.57302 -1.002659,-1.05419 -1.480468,-1.60937 0.827715,-3.73859 1.559477,-7.56294 2.136718,-11.54688 0.242318,-1.6724 0.333298,-3.54069 0.541016,-5.25586 z m -41.181641,17.32422 c 5.692375,0.30141 11.082982,2.25067 15.902344,5.55274 -1.022418,2.73483 -2.114541,5.27261 -3.357422,7.3457 -3.806517,6.34919 -7.925566,9.67055 -15.205078,11.21094 -1.550988,0.3282 -3.732181,-0.0608 -7.142578,-2.67383 C 8.5910606,246.77271 4.6934744,242.11421 1.5229422,236.59667 1.0150742,235.71285 0.68565247,234.71124 0.22606717,233.78612 5.9790785,229.72461 12.585896,227.46208 21.804192,227.95018 Z m -35.49414,22.01563 c 3.7672197,5.88961 8.1926617,11.20754 13.52734327,15.29492 6.35463173,4.86886 14.68007173,8.22042 23.44726573,6.36523 12.193029,-2.58011 21.709562,-10.15273 27.75,-19.85742 -10.598701,21.30352 -16.145205,29.855 -21.845703,35.19922 -6.707043,6.28785 -18.591419,12.82914 -27.6718752,10.03516 -3.3746383,-1.03835 -11.4684601,-7.20264 -16.1699218,-15.01953 -4.701462,-7.81689 -6.40327,-16.18286 -3.546875,-22.9668 1.356426,-3.22151 2.892992,-6.20216 4.509766,-9.05078 z"
         id="path16" /><path
         style="fill:none;fill-opacity:1;stroke:#000000;stroke-width:10.00000013;stroke-linecap:round;stroke-dasharray:none;stroke-opacity:1;paint-order:stroke markers fill"
         d="m -224.73289,581.01647 c 28.47175,8.34876 69.42196,17.63474 99.49715,20.12301 C -63.387344,600.46029 53.434829,575.27211 64.81499,534.06276 78.888744,483.09948 43.790245,412.69975 -75.207682,416.11951 -137.96657,417.92307 -197.0945,458.28443 -201.25604,506.11412"
         id="path17"
         sodipodi:nodetypes="csssc" /></g></g></svg>
