<?xml version="1.0" encoding="UTF-8" standalone="no"?>
<!-- Created with Inkscape (http://www.inkscape.org/) -->

<svg
   viewBox="0 0 100 100"
   id="svg1"
>
    <g
     id="ball"
     transform="translate(-26.430258,-169.99606)">
        <path
       d="m 60,210 c 2.021923,-1.41229 2.552933,-2.02732 3.70315,-3.175 1.957694,-1.95337 5.35734,-4.16015 6.14217,-6.87917 1.4689,-5.08895 0.24226,-9.05944 -1.39927,-13.75833 -0.28845,-0.82571 -1.56106,-4.9314 -2.99452,-3.94588 -1.03757,0.71332 1.18103,4.4927 1.42764,5.53338 l -2.2463,-0.17006 -1.79104,-3.79869 -3.90016,-6.08542 c 1.14691,0.11368 4.52488,3.48344 5.22879,2.48108 0.64531,-0.91893 -0.97111,-2.19999 -1.52462,-2.72198 -2.18359,-2.05921 -3.34517,-4.30035 -6.35,-5.31433 -5.786239,-1.95255 -11.538631,0.17912 -16.668751,2.60398 -1.788156,0.84521 -3.47127,1.14523 -5.023204,2.5017 -2.23631,1.95465 -2.440257,4.05754 -3.631488,6.53395 -0.796865,1.65657 -2.415732,2.63359 -2.846925,4.49894 -0.618625,2.67617 -0.836118,7.53069 0.367885,10.05396 0.836807,1.75372 2.478393,3.31875 3.514916,5.02729 1.765096,2.90946 2.37169,5.05687 5.50215,6.87773 2.989437,1.73884 7.490848,1.99661 10.847916,2.71586 1.273752,0.2729 2.334441,1.15577 3.704167,0.87623 3.196984,-0.65247 5.340374,-2.50261 7.937494,-3.85524 m -1.32291,-34.66042 v 0.52917 c -5.063629,2.36694 -9.466895,6.75145 -12.852095,11.1125 -0.697472,0.89853 -2.494842,4.50547 -3.89403,2.54029 -1.143175,-1.60561 2.498851,-6.69291 3.364658,-8.09654 0.284898,-0.46187 1.614902,-2.1684 0.589597,-2.55437 -0.867782,-0.32668 -1.65785,1.2092 -2.010507,1.76062 -1.307488,2.04443 -2.291994,4.18817 -3.377112,6.3449 -0.376404,0.74812 -0.927533,1.51923 -1.844937,0.93747 -1.357042,-0.86055 0.438397,-4.56801 0.862345,-5.69487 2.049816,-5.44843 3.634509,-8.73125 9.901664,-8.73125 -0.406968,0.57828 -2.865775,2.78286 -1.739391,3.46041 1.013967,0.60992 3.403041,-2.85089 4.385224,-3.30791 2.096975,-0.97574 4.891624,0.56425 6.614584,1.69958 m -19.050001,1.85209 c -1.185675,4.11736 -2.189569,4.23591 -6.085416,4.23333 1.203974,-2.08288 3.454279,-4.62829 6.085416,-4.23333 m 17.727081,1.5875 c 2.13747,3.12647 4.09989,5.86855 5.29167,9.525 l -3.175,0.52916 -6.085419,-7.40833 3.968749,-2.64583 m -20.108331,4.7625 -0.79375,3.175 c -0.675437,0.19829 -1.608356,0.64256 -0.935024,1.47807 0.78535,0.97451 2.745887,1.46096 3.845441,2.0299 2.082122,1.07734 3.943757,2.51016 5.820833,3.90036 -3.548164,4.29594 -6.64368,0.33532 -10.583333,-1.3566 -1.17566,-0.5049 -4.045175,-0.89759 -4.602852,-2.14321 -1.317418,-2.94257 1.293318,-2.58653 2.661554,-3.41019 0.888527,-0.53488 0.103673,-1.25316 -0.439952,-1.55667 0.800324,-2.76962 2.58273,-2.42558 5.027083,-2.11666 m 20.108331,5.82083 -2.91042,0.5112 -4.497911,-3.15703 c 2.753102,-3.82769 6.447341,-1.3981 7.408331,2.64583 m -5.027081,1.5875 c -1.529477,0.5208 -3.685197,2.27728 -5.291666,2.14198 -3.195471,-0.26912 -1.262332,-4.53646 0.577958,-5.25308 1.479462,-0.57611 3.953257,2.07861 4.713708,3.1111 m 16.139581,4.49792 c -3.93595,-0.0326 -7.71166,-0.52794 -11.64167,0.21273 -0.58972,0.11114 -4.365674,0.71246 -3.021059,1.98621 0.784609,0.74326 3.371419,-0.24585 4.343979,-0.38136 3.0911,-0.43071 7.43814,-0.82449 10.31875,0.56367 -0.35502,1.35715 -0.71673,3.54758 -2.38533,3.86095 -2.12901,0.39984 -4.67914,-0.50711 -6.87509,-0.41096 -4.91664,0.21529 -9.686721,1.61098 -14.022911,3.90036 -2.16195,1.14144 -4.974068,4.52427 -7.408333,3.23298 2.288681,-3.24905 5.845684,-5.6326 9.260417,-7.56063 0.940371,-0.53096 3.859208,-1.2905 4.066335,-2.48843 0.304827,-1.76298 -3.862629,0.48595 -4.330919,0.72413 -3.636176,1.84942 -7.686573,4.64094 -10.054166,8.00201 -3.470409,-1.01626 3.215263,-6.48038 4.497916,-7.59636 5.474505,-4.76309 12.429482,-7.95785 19.579161,-9.13751 1.57533,-0.25992 6.20021,-1.39958 7.42467,-0.0398 1.03232,1.1464 0.49908,3.78094 0.24825,5.13202 m -28.310414,2.91041 c -0.865838,0.65961 -1.827379,1.92296 -2.910417,2.16608 -1.4627,0.32833 -6.34237,-1.45503 -7.120068,-2.71055 -0.835043,-1.34811 -0.552848,-3.23473 -0.552848,-4.74719 3.026042,0.26419 9.126989,2.4817 10.583333,5.29166 m -7.14375,2.64584 2.910417,1.05833 -1.5875,1.85208 -1.322917,-2.91041 m 31.220834,2.38125 c -1.78044,2.69161 -4.43019,4.83893 -7.40834,6.08541 -0.69832,-1.57816 -0.85345,-5.27306 1.13183,-6.19035 1.6895,-0.78063 4.46564,0.10374 6.27651,0.10494 m -8.73125,0.26458 -0.26459,1.05833 h -0.26458 l -0.26458,-1.05833 h 0.79375 m -2.645839,0.52917 2.381249,6.87916 c -2.402459,0.63788 -4.277446,-4.26368 -5.291661,-6.08541 l 2.910412,-0.79375 m -1.058328,7.9375 c -2.302856,-0.17508 -4.559259,-3.76361 -5.820834,-5.55625 3.305388,-1.3442 5.118113,2.62501 5.820834,5.55625 m -7.408334,-4.49792 3.175,3.43958 -5.820833,-1.32291 z"
       id="path1"/>
    </g>
</svg>
