<svg width="58" height="986" viewBox="0 0 58 986" fill="none" xmlns="http://www.w3.org/2000/svg">
<path d="M55.5 629.5L53.4999 982C53.4999 982 44.7602 985.5 38.9999 985.5C33.2397 985.5 23.9999 982 23.9999 982L15.4999 629.5C15.4999 629.5 19.084 567.967 18.9999 528.5C18.883 473.553 11.4999 388 11.4999 388V140L27 47C27 47 10.637 69.0037 2.49995 66.5C-4.00004 64.5 6 6.70961e-05 23.9999 0C40.5239 -6.15943e-05 44.1867 14.0996 48.5 29C54 48 57.5 140 57.5 140L53.4999 388C53.4999 388 50.1692 471.744 50.9999 531.5C51.4861 566.468 55.5 629.5 55.5 629.5Z" fill="#D9D9D9"/>
</svg>
