<?xml version="1.0" encoding="UTF-8" standalone="no"?>
<!-- Created with Inkscape (http://www.inkscape.org/) -->

<svg
   version="1.1"
   id="svg1"
   width="84.218643"
   height="112.97119"
   viewBox="0 0 84.218643 112.97119"
   xml:space="preserve"
   xmlns="http://www.w3.org/2000/svg"
   xmlns:svg="http://www.w3.org/2000/svg"><defs
     id="defs1" /><g
     id="g1"
     transform="translate(-95.78125,-13.999671)"><path
       id="path1"
       style="fill:#f4bc3d;stroke:none"
       d="m 109.72266,14 -5.18164,1.347656 -6.064458,1.566406 -2.455078,0.779297 -0.240234,1.587891 0.04102,3.839844 c 3.720642,-0.9021 7.44278,-2.726176 10.99804,-4.146485 4.21685,-1.684611 8.54676,-3.096591 12.75,-4.814453 0.11759,-0.04806 0.25229,-0.110488 0.3711,-0.160156 z m 12.64062,0 -1.0293,0.492188 -15.4414,7.515624 -6.687502,3.271485 -3.085937,1.621094 -0.238282,1.820312 0.04883,4.480469 c 2.941466,-1.105945 5.771091,-3.456877 8.425781,-5.140625 5.81959,-3.691101 11.61308,-7.437692 17.48437,-11.044922 1.50995,-0.927689 3.01303,-2.007736 4.54688,-3.015625 z m 5.24024,0 c -6.87345,5.707819 -14.3553,10.902037 -21.46485,16.255859 -2.33946,1.76172 -4.6598,3.550078 -6.984373,5.332032 -0.892769,0.68436 -2.446856,1.470264 -3.009766,2.458984 -0.3517,0.617746 -0.147843,1.66748 -0.140625,2.353516 l 0.05664,5.279297 3.896484,-3.441407 8.64844,-8.144531 L 130.00195,14 Z m 2.58789,0 -7.625,8.679688 -16.5,18.576171 -6.619144,7.429688 -3.179688,3.71875 -0.09766,3.675781 0.08594,8.160156 3.583985,-4.679687 6.177737,-8.705078 18.05078,-25.310547 7.98437,-11.125 c -2.01548,4.809753 -5.3927,9.333027 -8.01171,13.845703 -6.27142,10.805888 -12.77314,21.488207 -18.93164,32.361328 -2.02445,3.574256 -4.23297,7.042404 -6.244147,10.625 -0.761844,1.357122 -2.012214,2.831337 -2.410156,4.345703 -0.533337,2.029617 -0.02991,4.782491 -0.0078,6.88086 l 0.15625,14.878906 0.160156,-0.002 8.863277,-19.773438 16.97852,-38.101562 6.95117,-15.59375 4.09766,-9.324219 0.16015,-0.002 c -0.69394,3.148582 -2.10942,6.260906 -3.15039,9.314453 -2.30238,6.753768 -4.66621,13.486066 -6.98828,20.234375 -6.2431,18.143586 -12.42749,36.30485 -18.68945,54.439453 -2.34699,6.796886 -4.67297,13.602276 -7.027345,20.396486 -0.700589,2.02177 -1.088959,3.62778 -1.066406,5.77149 0.0056,0.5325 -0.173528,1.53919 0.183594,1.98047 0.32377,0.40005 1.151145,0.24492 1.599609,0.24023 l 4.638668,-0.0488 4.48047,-0.0469 c 0.51542,-0.005 1.39117,0.14642 1.82813,-0.1836 0.89994,-0.6797 0.96964,-3.58299 1.2207,-4.64843 1.05641,-4.48293 2.14389,-8.96716 3.08984,-13.47461 4.6689,-22.247354 10.01693,-44.399765 15.08789,-66.562508 1.39426,-6.09363 2.85893,-12.176346 4.19336,-18.285156 0.61933,-2.835219 1.6846,-5.759403 1.88477,-8.660156 h 0.16016 l -1.26758,9.933594 -2.39844,17.625 -7.94922,58.966796 -2.37695,17.30665 -0.99414,7.85156 12.64062,-0.13282 1.10352,-31.374999 1.93554,-60.503906 0.74415,-20.007813 0.1582,-0.002 1.37891,25.107422 3.20312,59.96875 1.55469,26.705076 13.43945,-0.14062 -1.15039,-7.0293 -2.70898,-16.61133 -9.86915,-60.380857 -2.93164,-17.888672 -1.47265,-9.425781 0.16015,-0.002 2.13477,8.61914 4.96484,19.308594 13.49219,52.820312 5.17188,20.107424 2.60937,10.37304 13.11914,-0.13867 c -0.0169,-1.60403 0.17556,-3.37857 -0.10547,-4.95898 -0.62068,-3.49048 -2.63636,-7.19606 -3.89062,-10.51953 l -6.74805,-17.849612 c -6.29289,-16.674775 -12.44552,-33.41656 -18.84375,-50.044922 -2.12057,-5.511106 -4.11252,-11.072939 -6.2539,-16.574218 -1.43006,-3.673886 -3.28162,-7.485194 -4.21094,-11.316407 l 0.16015,-0.002 c 0.75251,2.512501 2.32498,4.963273 3.47071,7.324219 l 6.70703,13.849609 c 6.32263,13.028751 12.64737,26.06842 18.82812,39.164063 3.38057,7.162677 7.67191,14.225614 10.41797,21.652344 l 0.16016,-0.002 -0.15235,-14.560547 -0.17578,-6.876953 -3.14257,-5.248047 -6.45118,-10.332032 -19.97656,-32.113281 -5.55664,-8.90039 -2.85742,-4.771485 0.16015,-0.002 z m 11.29882,0 3.10547,4.289062 5.51563,7.300782 16.55078,21.908203 8.47851,11.271484 4.15626,5.236328 -0.0801,-7.679687 -0.13282,-3.519531 -3.09179,-3.619141 -7.125,-7.632812 L 143.35156,14 Z m 2.02344,0 8.13281,7.226562 17.28321,15.541016 6.18554,5.595703 3.99024,3.404297 -0.0606,-5.759766 -0.1914,-2.488281 -3.06055,-2.371093 -6.77149,-4.873047 L 153.2207,18.824219 146.63281,14 Z m 3.84961,0 21.7832,12.902344 9.82032,5.746094 -0.0488,-4.640626 -0.18359,-1.816406 -2.56836,-1.341797 -6.75196,-3.03125 -16.7207,-7.580078 L 152.1582,14 Z m 7.69336,0 c 4.72253,1.645741 9.43741,3.306638 14.16602,4.939453 3.00209,1.036645 6.45676,2.904786 9.63281,3.148438 -0.0114,-1.084009 0.51494,-4.544082 -0.31055,-5.28711 -0.58871,-0.529895 -1.88593,-0.564034 -2.63281,-0.742187 -2.18933,-0.522227 -4.38651,-1.008396 -6.57617,-1.53125 C 168.56745,14.343837 167.79531,14.177416 167.02539,14 Z m -15.32617,0.01953 0.008,0.798828 -0.16797,-0.796875 z" /></g></svg>
